<mxfile host="app.diagrams.net" modified="2021-07-03T15:17:53.782Z" agent="5.0 (Macintosh; Intel Mac OS X 10_15_7) AppleWebKit/537.36 (KHTML, like Gecko) Chrome/91.0.4472.114 Safari/537.36" etag="n3E1mvK3sfTSxC_LHVED" version="14.8.3" type="github">
  <diagram id="g0uHM2vRM4wZy8sYw2WT" name="第 1 页">
    <mxGraphModel dx="946" dy="589" grid="1" gridSize="10" guides="1" tooltips="1" connect="1" arrows="1" fold="1" page="1" pageScale="1" pageWidth="3300" pageHeight="2339" math="0" shadow="0">
      <root>
        <mxCell id="0" />
        <mxCell id="1" parent="0" />
        <mxCell id="REHJ8oRx9UyghgxtZ1v1-5" value="" style="edgeStyle=orthogonalEdgeStyle;rounded=0;orthogonalLoop=1;jettySize=auto;html=1;startArrow=none;startFill=0;endArrow=classic;endFill=1;entryX=0;entryY=0.5;entryDx=0;entryDy=0;" parent="1" source="REHJ8oRx9UyghgxtZ1v1-1" target="REHJ8oRx9UyghgxtZ1v1-11" edge="1">
          <mxGeometry relative="1" as="geometry">
            <mxPoint x="370" y="180" as="targetPoint" />
          </mxGeometry>
        </mxCell>
        <mxCell id="REHJ8oRx9UyghgxtZ1v1-1" value="MybatisAutoConfiguration" style="rounded=1;whiteSpace=wrap;html=1;strokeColor=#b85450;fillColor=#f8cecc;" parent="1" vertex="1">
          <mxGeometry x="160" y="160" width="160" height="40" as="geometry" />
        </mxCell>
        <mxCell id="REHJ8oRx9UyghgxtZ1v1-3" value="" style="edgeStyle=orthogonalEdgeStyle;rounded=0;orthogonalLoop=1;jettySize=auto;html=1;startArrow=none;startFill=0;endArrow=classic;endFill=1;dashed=1;" parent="1" source="REHJ8oRx9UyghgxtZ1v1-2" target="REHJ8oRx9UyghgxtZ1v1-1" edge="1">
          <mxGeometry relative="1" as="geometry" />
        </mxCell>
        <mxCell id="REHJ8oRx9UyghgxtZ1v1-2" value="Springboot自动配置 &amp;nbsp;Mybatis 自动配置入口" style="text;html=1;fillColor=none;align=center;verticalAlign=middle;whiteSpace=wrap;rounded=0;dashed=1;strokeColor=#000000;" parent="1" vertex="1">
          <mxGeometry x="170" y="70" width="140" height="50" as="geometry" />
        </mxCell>
        <mxCell id="REHJ8oRx9UyghgxtZ1v1-9" value="" style="edgeStyle=orthogonalEdgeStyle;rounded=0;orthogonalLoop=1;jettySize=auto;html=1;startArrow=none;startFill=0;endArrow=classic;endFill=1;fillColor=#d5e8d4;" parent="1" source="REHJ8oRx9UyghgxtZ1v1-4" target="REHJ8oRx9UyghgxtZ1v1-8" edge="1">
          <mxGeometry relative="1" as="geometry" />
        </mxCell>
        <mxCell id="REHJ8oRx9UyghgxtZ1v1-10" value="先创建&lt;span style=&quot;font-size: 12px&quot;&gt;&lt;span style=&quot;background-color: rgb(248 , 249 , 250)&quot;&gt;SqlSessionFactoryBean&lt;/span&gt;&lt;br&gt;&lt;span style=&quot;background-color: rgb(185 , 224 , 165)&quot;&gt;实现了&amp;nbsp;&lt;/span&gt;&lt;/span&gt;&lt;span style=&quot;background-color: rgb(185 , 224 , 165)&quot;&gt;FactoryBean&amp;lt;SqlSessionFactory&amp;gt;&lt;/span&gt;&lt;span style=&quot;font-size: 12px ; background-color: rgb(248 , 249 , 250)&quot;&gt;&lt;br&gt;&lt;/span&gt;" style="edgeLabel;html=1;align=center;verticalAlign=middle;resizable=0;points=[];" parent="REHJ8oRx9UyghgxtZ1v1-9" vertex="1" connectable="0">
          <mxGeometry x="-0.0857" relative="1" as="geometry">
            <mxPoint as="offset" />
          </mxGeometry>
        </mxCell>
        <mxCell id="REHJ8oRx9UyghgxtZ1v1-22" value="" style="edgeStyle=orthogonalEdgeStyle;rounded=0;orthogonalLoop=1;jettySize=auto;html=1;startArrow=none;startFill=0;endArrow=classic;endFill=1;strokeColor=#000000;exitX=0.5;exitY=1;exitDx=0;exitDy=0;" parent="1" source="REHJ8oRx9UyghgxtZ1v1-23" target="REHJ8oRx9UyghgxtZ1v1-21" edge="1">
          <mxGeometry relative="1" as="geometry">
            <mxPoint x="1510" y="190" as="sourcePoint" />
          </mxGeometry>
        </mxCell>
        <mxCell id="REHJ8oRx9UyghgxtZ1v1-24" value="" style="edgeStyle=orthogonalEdgeStyle;rounded=0;orthogonalLoop=1;jettySize=auto;html=1;startArrow=none;startFill=0;endArrow=classic;endFill=1;strokeColor=#000000;" parent="1" source="REHJ8oRx9UyghgxtZ1v1-4" target="REHJ8oRx9UyghgxtZ1v1-23" edge="1">
          <mxGeometry relative="1" as="geometry" />
        </mxCell>
        <mxCell id="REHJ8oRx9UyghgxtZ1v1-4" value="MybatisAutoConfiguration.sqlSessionFactory()" style="rounded=1;whiteSpace=wrap;html=1;strokeColor=#666666;fillColor=#f5f5f5;fontColor=#333333;" parent="1" vertex="1">
          <mxGeometry x="720" y="160" width="260" height="40" as="geometry" />
        </mxCell>
        <mxCell id="REHJ8oRx9UyghgxtZ1v1-7" value="" style="edgeStyle=orthogonalEdgeStyle;rounded=0;orthogonalLoop=1;jettySize=auto;html=1;startArrow=none;startFill=0;endArrow=classic;endFill=1;dashed=1;" parent="1" source="REHJ8oRx9UyghgxtZ1v1-6" target="REHJ8oRx9UyghgxtZ1v1-4" edge="1">
          <mxGeometry relative="1" as="geometry" />
        </mxCell>
        <mxCell id="REHJ8oRx9UyghgxtZ1v1-6" value="创建 sqlSessionFactory" style="text;html=1;fillColor=none;align=center;verticalAlign=middle;whiteSpace=wrap;rounded=0;dashed=1;strokeColor=#000000;" parent="1" vertex="1">
          <mxGeometry x="780" y="70" width="140" height="50" as="geometry" />
        </mxCell>
        <mxCell id="REHJ8oRx9UyghgxtZ1v1-8" value="new SqlSessionFactoryBean()" style="rounded=1;whiteSpace=wrap;html=1;strokeColor=#82b366;fillColor=#d5e8d4;" parent="1" vertex="1">
          <mxGeometry x="720" y="270" width="260" height="40" as="geometry" />
        </mxCell>
        <mxCell id="REHJ8oRx9UyghgxtZ1v1-12" value="" style="edgeStyle=orthogonalEdgeStyle;rounded=0;orthogonalLoop=1;jettySize=auto;html=1;startArrow=none;startFill=0;endArrow=classic;endFill=1;strokeColor=#000000;" parent="1" source="REHJ8oRx9UyghgxtZ1v1-11" target="REHJ8oRx9UyghgxtZ1v1-4" edge="1">
          <mxGeometry relative="1" as="geometry" />
        </mxCell>
        <mxCell id="REHJ8oRx9UyghgxtZ1v1-16" value="" style="edgeStyle=orthogonalEdgeStyle;rounded=0;orthogonalLoop=1;jettySize=auto;html=1;startArrow=none;startFill=0;endArrow=classic;endFill=1;strokeColor=#000000;" parent="1" source="REHJ8oRx9UyghgxtZ1v1-11" target="REHJ8oRx9UyghgxtZ1v1-15" edge="1">
          <mxGeometry relative="1" as="geometry" />
        </mxCell>
        <mxCell id="REHJ8oRx9UyghgxtZ1v1-17" value="&lt;span style=&quot;font-size: 12px ; background-color: rgb(248 , 249 , 250)&quot;&gt;MybatisAutoConfiguration &lt;br&gt;自动配置类先加载数据源&lt;/span&gt;" style="edgeLabel;html=1;align=center;verticalAlign=middle;resizable=0;points=[];" parent="REHJ8oRx9UyghgxtZ1v1-16" vertex="1" connectable="0">
          <mxGeometry x="-0.1333" relative="1" as="geometry">
            <mxPoint as="offset" />
          </mxGeometry>
        </mxCell>
        <mxCell id="REHJ8oRx9UyghgxtZ1v1-11" value="DataSourceAutoConfiguration" style="rounded=1;whiteSpace=wrap;html=1;strokeColor=#666666;fillColor=#f5f5f5;fontColor=#333333;" parent="1" vertex="1">
          <mxGeometry x="380" y="160" width="260" height="40" as="geometry" />
        </mxCell>
        <mxCell id="REHJ8oRx9UyghgxtZ1v1-14" value="" style="edgeStyle=orthogonalEdgeStyle;rounded=0;orthogonalLoop=1;jettySize=auto;html=1;startArrow=none;startFill=0;endArrow=classic;endFill=1;strokeColor=#000000;dashed=1;" parent="1" source="REHJ8oRx9UyghgxtZ1v1-13" target="REHJ8oRx9UyghgxtZ1v1-11" edge="1">
          <mxGeometry relative="1" as="geometry" />
        </mxCell>
        <mxCell id="REHJ8oRx9UyghgxtZ1v1-13" value="创建 DataSource" style="text;html=1;fillColor=none;align=center;verticalAlign=middle;whiteSpace=wrap;rounded=0;dashed=1;strokeColor=#000000;" parent="1" vertex="1">
          <mxGeometry x="440" y="70" width="140" height="50" as="geometry" />
        </mxCell>
        <mxCell id="REHJ8oRx9UyghgxtZ1v1-19" value="" style="edgeStyle=orthogonalEdgeStyle;rounded=0;orthogonalLoop=1;jettySize=auto;html=1;startArrow=none;startFill=0;endArrow=classic;endFill=1;strokeColor=#000000;" parent="1" source="REHJ8oRx9UyghgxtZ1v1-15" target="REHJ8oRx9UyghgxtZ1v1-18" edge="1">
          <mxGeometry relative="1" as="geometry" />
        </mxCell>
        <mxCell id="REHJ8oRx9UyghgxtZ1v1-20" value="@Import({ DataSourceConfiguration.Hikari.class ...})&lt;br&gt;导入数据库连接池" style="edgeLabel;html=1;align=center;verticalAlign=middle;resizable=0;points=[];" parent="REHJ8oRx9UyghgxtZ1v1-19" vertex="1" connectable="0">
          <mxGeometry x="-0.05" relative="1" as="geometry">
            <mxPoint as="offset" />
          </mxGeometry>
        </mxCell>
        <mxCell id="REHJ8oRx9UyghgxtZ1v1-15" value="&lt;div&gt;&lt;br&gt;&lt;/div&gt;&lt;div&gt;@AutoConfigureAfter({ DataSourceAutoConfiguration.class, })&lt;/div&gt;&lt;div&gt;&lt;br&gt;&lt;/div&gt;" style="rounded=1;whiteSpace=wrap;html=1;strokeColor=#82b366;fillColor=#d5e8d4;" parent="1" vertex="1">
          <mxGeometry x="380" y="260" width="260" height="40" as="geometry" />
        </mxCell>
        <mxCell id="REHJ8oRx9UyghgxtZ1v1-18" value="&lt;div&gt;DataSourceConfiguration.Hikari&lt;br&gt;&lt;/div&gt;" style="rounded=1;whiteSpace=wrap;html=1;strokeColor=#82b366;fillColor=#d5e8d4;" parent="1" vertex="1">
          <mxGeometry x="380" y="380" width="260" height="40" as="geometry" />
        </mxCell>
        <mxCell id="REHJ8oRx9UyghgxtZ1v1-21" value="return sqlSessionTemplate" style="rounded=1;whiteSpace=wrap;html=1;strokeColor=#b85450;fillColor=#f8cecc;" parent="1" vertex="1">
          <mxGeometry x="1110" y="270" width="160" height="40" as="geometry" />
        </mxCell>
        <mxCell id="REHJ8oRx9UyghgxtZ1v1-23" value="MybatisAutoConfiguration.sqlSessionTemplate()" style="rounded=1;whiteSpace=wrap;html=1;strokeColor=#666666;fillColor=#f5f5f5;fontColor=#333333;" parent="1" vertex="1">
          <mxGeometry x="1060" y="160" width="260" height="40" as="geometry" />
        </mxCell>
        <mxCell id="REHJ8oRx9UyghgxtZ1v1-26" value="" style="edgeStyle=orthogonalEdgeStyle;rounded=0;orthogonalLoop=1;jettySize=auto;html=1;startArrow=none;startFill=0;endArrow=classic;endFill=1;strokeColor=#000000;dashed=1;" parent="1" source="REHJ8oRx9UyghgxtZ1v1-25" target="REHJ8oRx9UyghgxtZ1v1-23" edge="1">
          <mxGeometry relative="1" as="geometry" />
        </mxCell>
        <mxCell id="REHJ8oRx9UyghgxtZ1v1-25" value="创建 sqlSessionTemplate&lt;br&gt;也就是 sqlSession" style="text;html=1;fillColor=none;align=center;verticalAlign=middle;whiteSpace=wrap;rounded=0;dashed=1;strokeColor=#000000;" parent="1" vertex="1">
          <mxGeometry x="1120" y="70" width="140" height="50" as="geometry" />
        </mxCell>
      </root>
    </mxGraphModel>
  </diagram>
</mxfile>
